<svg width="26" height="26" viewBox="0 0 26 26" fill="none" xmlns="http://www.w3.org/2000/svg">
<path d="M15.0233 13L25.2772 0.777344C25.449 0.574219 25.3045 0.265625 25.0389 0.265625H21.9217C21.7381 0.265625 21.5623 0.347656 21.4412 0.488281L12.9842 10.5703L4.52717 0.488281C4.40998 0.347656 4.2342 0.265625 4.0467 0.265625H0.929512C0.663887 0.265625 0.519356 0.574219 0.691231 0.777344L10.9451 13L0.691231 25.2227C0.652729 25.2679 0.628029 25.3233 0.620062 25.3822C0.612094 25.4411 0.621195 25.501 0.646283 25.5549C0.671371 25.6088 0.711394 25.6544 0.761598 25.6862C0.811803 25.718 0.87008 25.7347 0.929512 25.7344H4.0467C4.23029 25.7344 4.40607 25.6523 4.52717 25.5117L12.9842 15.4297L21.4412 25.5117C21.5584 25.6523 21.7342 25.7344 21.9217 25.7344H25.0389C25.3045 25.7344 25.449 25.4258 25.2772 25.2227L15.0233 13Z" fill="white"/>
</svg>
